<svg xmlns="http://www.w3.org/2000/svg" xmlns:xlink="http://www.w3.org/1999/xlink" width="293.74" height="294.95" viewBox="0 0 293.74 294.95">
  <defs>
    <filter id="Ellipse_22" x="64.698" y="51.139" width="184" height="184" filterUnits="userSpaceOnUse">
      <feOffset dy="3" input="SourceAlpha"/>
      <feGaussianBlur stdDeviation="8" result="blur"/>
      <feFlood flood-opacity="0.161"/>
      <feComposite operator="in" in2="blur"/>
      <feComposite in="SourceGraphic"/>
    </filter>
    <linearGradient id="linear-gradient" x1="0.5" x2="0.5" y2="1" gradientUnits="objectBoundingBox">
      <stop offset="0" stop-color="#09bc8a"/>
      <stop offset="1" stop-color="#65f4cc"/>
    </linearGradient>
  </defs>
  <g id="Group_215" data-name="Group 215" transform="translate(-993.302 -2384.861)">
    <g transform="matrix(1, 0, 0, 1, 993.3, 2384.86)" filter="url(#Ellipse_22)">
      <circle id="Ellipse_22-2" data-name="Ellipse 22" cx="68" cy="68" r="68" transform="translate(88.7 72.14)" fill="#fff"/>
    </g>
    <g id="Group_152" data-name="Group 152" transform="translate(1136.647 2384.861) rotate(47)">
      <path id="Path_148" data-name="Path 148" d="M450.228,174.407c-.141,1.413-.424,2.9-.707,4.381a105.69,105.69,0,0,1-11.375,31.3c-9.115,16.6-22.68,30.452-40.485,41.332q-26.389,16.215-55.039,17.24a108.7,108.7,0,0,1-23.6-1.625c-.353-.071-.777-.141-1.131-.212a105.924,105.924,0,0,1-19.995-6.783q-26.177-11.764-44.583-36.669-18.546-25.223-21.973-53.556a103.985,103.985,0,0,1,1.413-34.126,35.7,35.7,0,0,1,.848-3.745,105.28,105.28,0,0,1,10.033-24.587A107.676,107.676,0,0,1,269.708,76.2a14.966,14.966,0,0,1,7.772-3.321,17.329,17.329,0,0,1,1.908-.141,14.955,14.955,0,0,1,12.788,7.136A15.233,15.233,0,0,1,293.094,94a13.458,13.458,0,0,1-3.674,4.8,72.14,72.14,0,0,0-17.381,21.549,74.486,74.486,0,0,0-7.984,24.3,73.817,73.817,0,0,0-1.484,23.669q1.908,19.924,14.767,37.305A74.22,74.22,0,0,0,308.5,230.647a77.326,77.326,0,0,0,19.43,5.37.529.529,0,0,1,.353.071,75.735,75.735,0,0,0,15.544,1.342,74.791,74.791,0,0,0,38.294-11.375q18.335-11.34,27.7-29.039a73.187,73.187,0,0,0,7.419-22.044A73.649,73.649,0,0,0,419,149.113a72.317,72.317,0,0,0-7.984-26.566,13.488,13.488,0,0,1-1.554-5.935,15.047,15.047,0,0,1,6.147-12.647,14.634,14.634,0,0,1,8.761-2.9,15.068,15.068,0,0,1,7.419,1.908,14.646,14.646,0,0,1,6.005,6.076A107.784,107.784,0,0,1,450.228,147.7,105.57,105.57,0,0,1,450.228,174.407Z" transform="translate(-230.554 -72.736)" fill="url(#linear-gradient)"/>
    </g>
    <path id="Path_171" data-name="Path 171" d="M667.551,196.276a13.435,13.435,0,0,1-4.372,9.921,11.852,11.852,0,0,1-2.074,1.569,13.343,13.343,0,0,1-8.8,1.906,12.872,12.872,0,0,1-8.352-4.54,59.649,59.649,0,0,0-33.463-20.515,61.126,61.126,0,0,0-8.52-.392,60.082,60.082,0,0,0-21.86,4.82,12.783,12.783,0,0,1-8.52.5,13.25,13.25,0,0,1-7.9-6.054,12.413,12.413,0,0,1-1.121-2.3,13.193,13.193,0,0,1,4.989-15.583,6.147,6.147,0,0,1,2.018-1.177,84.028,84.028,0,0,1,70.906,3.868,82.84,82.84,0,0,1,23.878,19.338,13.557,13.557,0,0,1,3.2,8.632Z" transform="matrix(0.719, 0.695, -0.695, 0.719, 907.843, 1917.271)" fill="url(#linear-gradient)"/>
    <g id="healthcare-covid19-coronavirus-hand-hearth" transform="translate(1116.76 2491.801)">
      <path id="Path_172" data-name="Path 172" d="M38.437,13.134h-3.1v-3.1A1.034,1.034,0,0,0,34.3,9H30.168a1.034,1.034,0,0,0-1.034,1.034v3.1h-3.1A1.034,1.034,0,0,0,25,14.168V18.3a1.034,1.034,0,0,0,1.034,1.034h3.1v3.1a1.034,1.034,0,0,0,1.034,1.034H34.3a1.034,1.034,0,0,0,1.034-1.034v-3.1h3.1A1.034,1.034,0,0,0,39.47,18.3V14.168A1.034,1.034,0,0,0,38.437,13.134ZM37.4,17.269H34.3A1.034,1.034,0,0,0,33.269,18.3v3.1H31.2V18.3a1.034,1.034,0,0,0-1.034-1.034h-3.1V15.2h3.1A1.034,1.034,0,0,0,31.2,14.168v-3.1h2.067v3.1A1.034,1.034,0,0,0,34.3,15.2h3.1Z" transform="translate(0.765 0.229)" fill="#1e1e1e"/>
      <path id="Path_173" data-name="Path 173" d="M60.628,18.512a4.734,4.734,0,0,0,.031-.548,4.155,4.155,0,0,0-3.287-4.041,4.208,4.208,0,0,0-4.858,3.07L47.967,30.078a1.686,1.686,0,0,0-.2.093l-9.137,5.354a9.32,9.32,0,0,0-4.6,8.021v9.737A1.034,1.034,0,0,0,33,54.316v8.269a1.034,1.034,0,0,0,1.034,1.034H48.5a1.034,1.034,0,0,0,1.034-1.034V54.316A1.034,1.034,0,0,0,48.5,53.282V51.008a3.141,3.141,0,0,1,1.034-2.315l6.987-6.212A5.1,5.1,0,0,0,58.1,39.949l4.486-16.775a4.088,4.088,0,0,0,.145-1.075,4.154,4.154,0,0,0-2.1-3.587Zm-6.14-.91a2.184,2.184,0,0,1,2.46-1.654,2.067,2.067,0,0,1,1.643,2.016v.021a4.238,4.238,0,0,0-4.021,3.163l-2.884,8.9a4.341,4.341,0,0,0-1.385-.393ZM47.47,61.551h-12.4v-6.2h12.4ZM60.587,22.636l-4.5,16.786a3.081,3.081,0,0,1-.93,1.509l-7,6.212a5.226,5.226,0,0,0-1.726,3.866v2.274H36.1V43.545A7.289,7.289,0,0,1,39.677,37.3L48.8,31.959a2.067,2.067,0,0,1,2.832.755,2.129,2.129,0,0,1,.207,1.571,2.067,2.067,0,0,1-.972,1.251l-5.923,3.421a1.034,1.034,0,0,0,1.034,1.788L51.9,37.323a4.081,4.081,0,0,0,1.933-2.512,4.142,4.142,0,0,0-.413-3.132l-.062-.093,3.194-9.85a2.184,2.184,0,0,1,2.46-1.654A2.067,2.067,0,0,1,60.659,22.1,1.78,1.78,0,0,1,60.587,22.636Z" transform="translate(1.034 0.391)" fill="#1e1e1e"/>
      <path id="Path_174" data-name="Path 174" d="M30.933,53.282V43.545a9.32,9.32,0,0,0-4.6-8.021L17.2,30.16c-.062-.031-.134-.052-.2-.083L12.483,17.064a4.245,4.245,0,0,0-4.889-3.142,4.155,4.155,0,0,0-3.287,4.041,4.732,4.732,0,0,0,.031.548A4.154,4.154,0,0,0,2.24,22.1a4.57,4.57,0,0,0,.134,1.075l4.5,16.765a5.081,5.081,0,0,0,1.571,2.543l6.977,6.212a3.113,3.113,0,0,1,1.044,2.315v2.274a1.034,1.034,0,0,0-1.034,1.034v8.269a1.034,1.034,0,0,0,1.034,1.034h14.47a1.034,1.034,0,0,0,1.034-1.034V54.316A1.034,1.034,0,0,0,30.933,53.282ZM6.374,17.964a2.067,2.067,0,0,1,1.633-2.016,2.234,2.234,0,0,1,2.5,1.726l4.155,11.979a4.341,4.341,0,0,0-1.385.393L10.416,21.2a4.288,4.288,0,0,0-4.041-3.215ZM16.793,47.142,9.806,40.93a3.065,3.065,0,0,1-.93-1.519L4.369,22.636a2.192,2.192,0,0,1-.062-.537A2.067,2.067,0,0,1,5.94,20.083a2.216,2.216,0,0,1,2.491,1.705l3.173,9.8-.062.093a4.142,4.142,0,0,0-.413,3.132,4.081,4.081,0,0,0,1.933,2.512l5.923,3.421a1.034,1.034,0,0,0,1.034-1.788L14.1,35.535a2.067,2.067,0,0,1-.972-1.251,2.129,2.129,0,0,1,.207-1.571,2.067,2.067,0,0,1,2.822-.765L25.289,37.3a7.289,7.289,0,0,1,3.576,6.243v9.737H18.53V51.008A5.2,5.2,0,0,0,16.793,47.142ZM29.9,61.551H17.5v-6.2H29.9Z" transform="translate(0 0.392)" fill="#1e1e1e"/>
      <path id="Path_175" data-name="Path 175" d="M47.2,5.231a10.33,10.33,0,0,0-14.622,0h0A10.334,10.334,0,1,0,17.952,19.841L31.844,33.732a1.034,1.034,0,0,0,1.462,0L47.2,19.841a10.342,10.342,0,0,0,0-14.61ZM32.574,31.54,19.413,18.379A8.269,8.269,0,0,1,25.266,4.267a8.182,8.182,0,0,1,5.843,2.426l.734.734a1.034,1.034,0,0,0,1.462,0l.736-.736A8.266,8.266,0,0,1,45.734,18.377Z" transform="translate(0.426 0)" fill="#1e1e1e"/>
    </g>
  </g>
</svg>
