<?xml version="1.0" encoding="UTF-8"?>
<svg width="192px" height="58px" viewBox="0 0 192 58" version="1.1" xmlns="http://www.w3.org/2000/svg" xmlns:xlink="http://www.w3.org/1999/xlink">
    <!-- Generator: Sketch 51.2 (57519) - http://www.bohemiancoding.com/sketch -->
    <title>Group</title>
    <desc>Created with Sketch.</desc>
    <defs></defs>
    <g id="Page-1" stroke="none" stroke-width="1" fill="none" fill-rule="evenodd">
        <g id="Desktop-HD" transform="translate(-134.000000, -662.000000)">
            <g id="Group" transform="translate(134.000000, 662.000000)">
                <rect id="button" fill="#FFFFFF" x="0" y="0" width="191.700008" height="57.6000023" rx="9.00000036"></rect>
                <text id="Download-on-the" font-family=".SFNSText, .SF NS Text" font-size="13.5000005" font-weight="normal" letter-spacing="1.08000009" fill="#000000">
                    <tspan x="61.2000024" y="20.2000003">Download on th</tspan>
                    <tspan x="174.109314" y="20.2000003">e</tspan>
                </text>
                <text id="App-Store" font-family=".SFNSDisplay, .SF NS Display" font-size="26.100001" font-weight="normal" fill="#000000">
                    <tspan x="61.2000024" y="45.7000008">App Store</tspan>
                </text>
                <path d="M43.5022214,42.9342086 C41.9229413,45.2334601 40.2893212,47.5185687 37.7100711,47.5664659 C35.171671,47.614363 34.357901,46.0695858 31.4613509,46.0695858 C28.5617608,46.0695858 27.6547007,47.5185687 25.2580216,47.614363 C22.7680145,47.7071402 20.8746455,45.1310658 19.2823504,42.8421857 C16.0293413,38.1622198 13.5465162,29.6095623 16.8856523,23.8377301 C18.5391844,20.9713123 21.5021205,19.1577076 24.7129116,19.1098293 C27.1582307,19.0650248 29.4682508,20.7511363 30.9618409,20.7511363 C32.4577109,20.7511363 35.261541,18.7267653 38.2092011,19.0236899 C39.4430612,19.0744345 42.9060013,19.5186711 45.1299514,22.7585169 C44.9542014,22.8735266 40.9965013,25.1658764 41.0447613,29.9416366 C41.0932113,35.6464883 46.0660815,37.5427626 46.1238415,37.5685969 C46.0788115,37.7026712 45.3288814,40.2757285 43.5022214,42.9342086 Z M32.6727909,12.7568011 C34.037941,11.1641833 36.3445411,9.9795964 38.2481511,9.90000039 C38.4913512,12.1122262 37.5974011,14.3275069 36.2770911,15.9238018 C34.954121,17.5172304 32.7885009,18.758483 30.6631608,18.5927476 C30.3743608,16.4284001 31.4455809,14.1711623 32.6727909,12.7568011 Z" id="logo" fill="#000000" fill-rule="nonzero"></path>
            </g>
        </g>
    </g>
</svg>