<svg xmlns="http://www.w3.org/2000/svg" xmlns:xlink="http://www.w3.org/1999/xlink" width="256.453" height="243.344" viewBox="0 0 256.453 243.344">
  <defs>
    <filter id="Ellipse_23" x="33.249" y="42.677" width="184" height="184" filterUnits="userSpaceOnUse">
      <feOffset dy="3" input="SourceAlpha"/>
      <feGaussianBlur stdDeviation="8" result="blur"/>
      <feFlood flood-opacity="0.161"/>
      <feComposite operator="in" in2="blur"/>
      <feComposite in="SourceGraphic"/>
    </filter>
    <linearGradient id="linear-gradient" x1="0.442" y1="0.714" x2="1.05" gradientUnits="objectBoundingBox">
      <stop offset="0" stop-color="#09bc8a"/>
      <stop offset="1" stop-color="#65f4cc"/>
    </linearGradient>
    <linearGradient id="linear-gradient-2" x1="0.5" y1="0" x2="0.5" y2="1" xlink:href="#linear-gradient"/>
  </defs>
  <g id="Group_216" data-name="Group 216" transform="translate(-156.751 -2975)">
    <g transform="matrix(1, 0, 0, 1, 156.75, 2975)" filter="url(#Ellipse_23)">
      <circle id="Ellipse_23-2" data-name="Ellipse 23" cx="68" cy="68" r="68" transform="translate(57.25 63.68)" fill="#fff"/>
    </g>
    <g id="Group_153" data-name="Group 153" transform="matrix(-0.978, -0.208, 0.208, -0.978, 372.454, 3212.565)">
      <path id="Path_148" data-name="Path 148" d="M450.228,174.407c-.141,1.413-.424,2.9-.707,4.381a105.69,105.69,0,0,1-11.375,31.3c-9.115,16.6-22.68,30.452-40.485,41.332q-26.389,16.215-55.039,17.24a108.7,108.7,0,0,1-23.6-1.625c-.353-.071-.777-.141-1.131-.212a105.924,105.924,0,0,1-19.995-6.783q-26.177-11.764-44.583-36.669-18.546-25.223-21.973-53.556a103.985,103.985,0,0,1,1.413-34.126,35.7,35.7,0,0,1,.848-3.745,105.28,105.28,0,0,1,10.033-24.587A107.676,107.676,0,0,1,269.708,76.2a14.966,14.966,0,0,1,7.772-3.321,17.329,17.329,0,0,1,1.908-.141,14.955,14.955,0,0,1,12.788,7.136A15.233,15.233,0,0,1,293.094,94a13.458,13.458,0,0,1-3.674,4.8,72.14,72.14,0,0,0-17.381,21.549,74.486,74.486,0,0,0-7.984,24.3,73.817,73.817,0,0,0-1.484,23.669q1.908,19.924,14.767,37.305A74.22,74.22,0,0,0,308.5,230.647a77.326,77.326,0,0,0,19.43,5.37.529.529,0,0,1,.353.071,75.735,75.735,0,0,0,15.544,1.342,74.791,74.791,0,0,0,38.294-11.375q18.335-11.34,27.7-29.039a73.187,73.187,0,0,0,7.419-22.044A73.649,73.649,0,0,0,419,149.113a72.317,72.317,0,0,0-7.984-26.566,13.488,13.488,0,0,1-1.554-5.935,15.047,15.047,0,0,1,6.147-12.647,14.634,14.634,0,0,1,8.761-2.9,15.068,15.068,0,0,1,7.419,1.908,14.646,14.646,0,0,1,6.005,6.076A107.784,107.784,0,0,1,450.228,147.7,105.57,105.57,0,0,1,450.228,174.407Z" transform="translate(-230.554 -72.736)" fill="#09bc8a"/>
      <path id="Path_168" data-name="Path 168" d="M450.228,174.407c-.141,1.413-.424,2.9-.707,4.381a105.69,105.69,0,0,1-11.375,31.3c-9.115,16.6-22.68,30.452-40.485,41.332q-26.389,16.215-55.039,17.24a108.7,108.7,0,0,1-23.6-1.625c-.353-.071-.777-.141-1.131-.212a105.924,105.924,0,0,1-19.995-6.783q-26.177-11.764-44.583-36.669-18.546-25.223-21.973-53.556a103.985,103.985,0,0,1,1.413-34.126,35.7,35.7,0,0,1,.848-3.745,105.28,105.28,0,0,1,10.033-24.587A107.676,107.676,0,0,1,269.708,76.2a14.966,14.966,0,0,1,7.772-3.321,17.329,17.329,0,0,1,1.908-.141,14.955,14.955,0,0,1,12.788,7.136A15.233,15.233,0,0,1,293.094,94a13.458,13.458,0,0,1-3.674,4.8,72.14,72.14,0,0,0-17.381,21.549,74.486,74.486,0,0,0-7.984,24.3,73.817,73.817,0,0,0-1.484,23.669q1.908,19.924,14.767,37.305A74.22,74.22,0,0,0,308.5,230.647a77.326,77.326,0,0,0,19.43,5.37.529.529,0,0,1,.353.071,75.735,75.735,0,0,0,15.544,1.342,74.791,74.791,0,0,0,38.294-11.375q18.335-11.34,27.7-29.039a73.187,73.187,0,0,0,7.419-22.044A73.649,73.649,0,0,0,419,149.113a72.317,72.317,0,0,0-7.984-26.566,13.488,13.488,0,0,1-1.554-5.935,15.047,15.047,0,0,1,6.147-12.647,14.634,14.634,0,0,1,8.761-2.9,15.068,15.068,0,0,1,7.419,1.908,14.646,14.646,0,0,1,6.005,6.076A107.784,107.784,0,0,1,450.228,147.7,105.57,105.57,0,0,1,450.228,174.407Z" transform="translate(-230.554 -72.736)" fill="url(#linear-gradient)"/>
    </g>
    <path id="Path_176" data-name="Path 176" d="M667.551,196.276a13.435,13.435,0,0,1-4.372,9.921,11.852,11.852,0,0,1-2.074,1.569,13.343,13.343,0,0,1-8.8,1.906,12.872,12.872,0,0,1-8.352-4.54,59.649,59.649,0,0,0-33.463-20.515,61.126,61.126,0,0,0-8.52-.392,60.082,60.082,0,0,0-21.86,4.82,12.783,12.783,0,0,1-8.52.5,13.25,13.25,0,0,1-7.9-6.054,12.413,12.413,0,0,1-1.121-2.3,13.193,13.193,0,0,1,4.989-15.583,6.147,6.147,0,0,1,2.018-1.177,84.028,84.028,0,0,1,70.906,3.868,82.84,82.84,0,0,1,23.878,19.338,13.557,13.557,0,0,1,3.2,8.632Z" transform="translate(834.619 3453.371) rotate(-172)" fill="url(#linear-gradient-2)"/>
    <g id="Group_156" data-name="Group 156" transform="translate(-414 2027.678)">
      <g id="otolaryngologist" transform="translate(665 1042)">
        <path id="Path_102" data-name="Path 102" d="M13.228,416.053a1.033,1.033,0,0,0-1.4.4,16.129,16.129,0,0,0-2.019,7.8v3.781a1.033,1.033,0,0,0,2.067,0v-3.781a14.057,14.057,0,0,1,1.759-6.8A1.033,1.033,0,0,0,13.228,416.053Z" transform="translate(-9.804 -358.61)" fill="#1e1e1e"/>
        <path id="Path_103" data-name="Path 103" d="M60.221,462.638H52.387a1.755,1.755,0,0,0-1.753,1.753v3.175a1.755,1.755,0,0,0,1.753,1.753h7.834a1.755,1.755,0,0,0,1.753-1.753v-3.175A1.755,1.755,0,0,0,60.221,462.638Zm-.314,4.614H52.7V464.7h7.206Z" transform="translate(-45.008 -398.887)" fill="#1e1e1e"/>
        <path id="Path_104" data-name="Path 104" d="M88.35,39.8a1.034,1.034,0,1,0-1.379,1.539A15.547,15.547,0,1,1,76.6,37.372a15.386,15.386,0,0,1,6.956,1.64,1.034,1.034,0,0,0,.926-1.848A17.624,17.624,0,0,0,70.3,36.472V20.632a20.41,20.41,0,0,0-4.515-12.88,1.034,1.034,0,1,0-1.614,1.291,18.364,18.364,0,0,1,4.062,11.589V37.425a17.726,17.726,0,0,0-7.882,8.7c-.109,0-.219.009-.328.009H56.355V43.571a14,14,0,0,0,6.517-11.815V29.89a4,4,0,0,0,0-8v-.807a1.563,1.563,0,0,0-1.562-1.562H57.865l-2.431-2.5a1.034,1.034,0,0,0-1.482,0l-2.431,2.5H37.9a1.563,1.563,0,0,0-1.562,1.562V21.9a4,4,0,0,0,0,7.982V31.8A14.016,14.016,0,0,0,42.99,43.7v2.442H39.308a8.219,8.219,0,0,1-8.21-8.21v-17.3A18.586,18.586,0,0,1,49.663,2.067,18.367,18.367,0,0,1,61.212,6.1,1.033,1.033,0,1,0,62.5,4.479,20.414,20.414,0,0,0,49.663,0,20.656,20.656,0,0,0,29.031,20.632v17.3A10.289,10.289,0,0,0,39.308,48.2h2.874l-6.173,2.708a16.03,16.03,0,0,0-4.734,3.182,1.034,1.034,0,0,0,1.439,1.484,13.97,13.97,0,0,1,4.125-2.773l.275-.121L47.944,64.274a2.271,2.271,0,0,0,3.319,0l7.952-8.509A17.615,17.615,0,1,0,88.35,39.8ZM59.386,49.18,57.163,48.2h2.463Q59.492,48.687,59.386,49.18Zm5.268-23.289a1.937,1.937,0,0,1-1.781,1.928V23.963A1.937,1.937,0,0,1,64.653,25.891Zm-29.962,0a1.937,1.937,0,0,1,1.644-1.911V27.8A1.937,1.937,0,0,1,34.692,25.891Zm3.71,5.9V21.591H51.958a1.033,1.033,0,0,0,.741-.313l1.994-2.052,1.994,2.052a1.034,1.034,0,0,0,.741.313h3.377V31.756a11.93,11.93,0,0,1-7.927,11.223l-.586.208a8.238,8.238,0,0,1-5.527-.011L46.283,43A11.937,11.937,0,0,1,38.4,31.8ZM49.753,62.863a.2.2,0,0,1-.3,0L39.12,51.805l5.319-2.333a1.034,1.034,0,0,0,.618-.946v-3.78q.261.106.527.2l.482.173a10.311,10.311,0,0,0,6.917.014l.586-.208c.243-.086.482-.181.718-.28v3.878a1.034,1.034,0,0,0,.618.946l4.154,1.823c-.049.536-.076,1.078-.076,1.626,0,.021,0,.043,0,.064Z" transform="translate(-26.382 0)" fill="#1e1e1e"/>
        <path id="Path_105" data-name="Path 105" d="M335.8,289.12a8.053,8.053,0,0,0-8.044,8.044v14.022a4.605,4.605,0,1,0,9.21,0v-.366a.528.528,0,0,1,.16-.378L341.4,306.3a8.088,8.088,0,0,0,2.444-5.775v-3.358A8.053,8.053,0,0,0,335.8,289.12Zm5.977,11.4a6.009,6.009,0,0,1-1.816,4.291l-4.274,4.145a2.607,2.607,0,0,0-.788,1.862v.366a2.538,2.538,0,1,1-5.076,0V297.164a5.977,5.977,0,1,1,11.955,0v3.358Z" transform="translate(-283.942 -249.28)" fill="#1e1e1e"/>
        <path id="Path_106" data-name="Path 106" d="M363.294,321.011a3.654,3.654,0,0,0-3.65,3.65,1.033,1.033,0,0,0,2.067,0,1.583,1.583,0,0,1,3.166,0v3.358a1.592,1.592,0,0,1-.481,1.137l-4.273,4.144q-.1.1-.193.195a1.034,1.034,0,0,0-.285.713v1.819a1.033,1.033,0,0,0,2.067,0v-1.388l4.124-4a3.67,3.67,0,0,0,1.109-2.62v-3.358A3.654,3.654,0,0,0,363.294,321.011Z" transform="translate(-311.437 -276.776)" fill="#1e1e1e"/>
        <path id="Path_107" data-name="Path 107" d="M360.678,369.45a1.033,1.033,0,0,0,1.033-1.034v-.346l.07-.07a1.033,1.033,0,0,0-1.462-1.461l-.373.373a1.033,1.033,0,0,0-.3.731v.774A1.033,1.033,0,0,0,360.678,369.45Z" transform="translate(-311.438 -315.769)" fill="#1e1e1e"/>
      </g>
    </g>
  </g>
</svg>
