<svg xmlns="http://www.w3.org/2000/svg" xmlns:xlink="http://www.w3.org/1999/xlink" width="220.522" height="227.364" viewBox="0 0 220.522 227.364">
  <defs>
    <filter id="Ellipse_20" x="18.544" y="29.237" width="184" height="184" filterUnits="userSpaceOnUse">
      <feOffset dy="3" input="SourceAlpha"/>
      <feGaussianBlur stdDeviation="8" result="blur"/>
      <feFlood flood-opacity="0.161"/>
      <feComposite operator="in" in2="blur"/>
      <feComposite in="SourceGraphic"/>
    </filter>
    <linearGradient id="linear-gradient" x1="0.442" y1="0.714" x2="1.05" gradientUnits="objectBoundingBox">
      <stop offset="0" stop-color="#09bc8a"/>
      <stop offset="1" stop-color="#65f4cc"/>
    </linearGradient>
    <linearGradient id="linear-gradient-2" x1="0.5" y1="0" x2="0.5" y2="1" xlink:href="#linear-gradient"/>
  </defs>
  <g id="Group_213" data-name="Group 213" transform="translate(-171.456 -2406.763)">
    <g transform="matrix(1, 0, 0, 1, 171.46, 2406.76)" filter="url(#Ellipse_20)">
      <circle id="Ellipse_20-2" data-name="Ellipse 20" cx="68" cy="68" r="68" transform="translate(42.54 50.24)" fill="#fff"/>
    </g>
    <g id="budget" transform="translate(244.639 2487.534)">
      <path id="Path_118" data-name="Path 118" d="M11.394,19.189v2.567h2.394V19.189a3.4,3.4,0,0,0,.505-6.3L11.96,11.724a1.022,1.022,0,0,1,.456-1.937h.348a1.024,1.024,0,0,1,1.023,1.022v.175h2.394V10.81a3.41,3.41,0,0,0-2.394-3.242V5H11.394V7.567a3.4,3.4,0,0,0-.505,6.3l2.333,1.167a1.022,1.022,0,0,1-.456,1.937h-.348a1.024,1.024,0,0,1-1.023-1.022V14.575H9v1.372A3.41,3.41,0,0,0,11.394,19.189Z" transform="translate(0.575 -0.213)" fill="#1e1e1e"/>
      <path id="Path_119" data-name="Path 119" d="M13.787,47.567V45H11.394v2.567a3.4,3.4,0,0,0-.505,6.3l2.333,1.167a1.022,1.022,0,0,1-.456,1.937h-.348a1.025,1.025,0,0,1-1.023-1.022V54.575H9v1.372a3.407,3.407,0,0,0,2.394,3.242v2.567h2.394V59.189a3.4,3.4,0,0,0,.505-6.3L11.96,51.724a1.022,1.022,0,0,1,.456-1.937h.348a1.025,1.025,0,0,1,1.023,1.022v.175h2.394V50.81A3.41,3.41,0,0,0,13.787,47.567Z" transform="translate(0.575 7.662)" fill="#1e1e1e"/>
      <path id="Path_120" data-name="Path 120" d="M14.165,27.331a13.176,13.176,0,0,0,12.319-8.565l9.23,2.517c0,.022-.006.042-.006.063a4.775,4.775,0,0,0,9.532.422l5.251-.875a4.787,4.787,0,0,0,4.367,2.846,4.737,4.737,0,0,0,2.972-1.064l13.223,9.917-4.422.737.393,2.361L75.385,34.3l-1.393-8.361-2.361.394.706,4.236L59.281,20.775a4.74,4.74,0,0,0,.365-1.822,4.775,4.775,0,0,0-9.532-.422l-5.251.875a4.76,4.76,0,0,0-8.5-.427l-9.243-2.521A13.159,13.159,0,1,0,14.165,27.331ZM54.859,16.559a2.394,2.394,0,1,1-2.394,2.394A2.4,2.4,0,0,1,54.859,16.559ZM40.5,18.953A2.394,2.394,0,1,1,38.1,21.347,2.4,2.4,0,0,1,40.5,18.953ZM14.165,3.394A10.772,10.772,0,1,1,3.394,14.165,10.784,10.784,0,0,1,14.165,3.394Z" transform="translate(-1 -1)" fill="#1e1e1e"/>
      <path id="Path_121" data-name="Path 121" d="M20.15,34.575H17.271a4.336,4.336,0,0,0-3.862-2.394H10.134a4.345,4.345,0,0,0-4.179,5.54L8.064,45.1l-4.67,6.226a11.969,11.969,0,0,0,9.575,19.15h2.394a11.884,11.884,0,0,0,4.787-1.007v1.007H32.118V25H20.15Zm-10.015,0h3.275a1.955,1.955,0,0,1,1.953,1.953v2.834h2.394V36.969h2.6A2.189,2.189,0,0,1,21.9,40.7L18.457,44.15H10.282L8.257,37.063a1.926,1.926,0,0,1-.075-.535,1.955,1.955,0,0,1,1.953-1.953Zm2.834,33.512a9.576,9.576,0,0,1-7.66-15.321l4.668-6.222h8.378l4.668,6.222a9.576,9.576,0,0,1-7.66,15.321ZM29.725,27.394V68.087H22.543v-.023a11.941,11.941,0,0,0,2.394-16.733l-4.4-5.872L23.6,42.4a4.557,4.557,0,0,0-1.052-7.24V27.394Z" transform="translate(-1 3.725)" fill="#1e1e1e"/>
      <path id="Path_122" data-name="Path 122" d="M29,69.3H40.969V31H29Zm2.394-35.906h7.181V66.906H31.394Z" transform="translate(4.512 4.906)" fill="#1e1e1e"/>
      <path id="Path_123" data-name="Path 123" d="M41,70.284H52.969V26H41Zm2.394-41.89h7.181v39.5H43.394Z" transform="translate(6.874 3.921)" fill="#1e1e1e"/>
      <path id="Path_124" data-name="Path 124" d="M53,68.512H64.969V35H53Zm2.394-31.118h7.181V66.118H55.394Z" transform="translate(9.237 5.693)" fill="#1e1e1e"/>
    </g>
    <g id="Group_147" data-name="Group 147" transform="translate(171.456 2438.128)">
      <path id="Path_148" data-name="Path 148" d="M450.228,174.407c-.141,1.413-.424,2.9-.707,4.381a105.69,105.69,0,0,1-11.375,31.3c-9.115,16.6-22.68,30.452-40.485,41.332q-26.389,16.215-55.039,17.24a108.7,108.7,0,0,1-23.6-1.625c-.353-.071-.777-.141-1.131-.212a105.924,105.924,0,0,1-19.995-6.783q-26.177-11.764-44.583-36.669-18.546-25.223-21.973-53.556a103.985,103.985,0,0,1,1.413-34.126,35.7,35.7,0,0,1,.848-3.745,105.28,105.28,0,0,1,10.033-24.587A107.676,107.676,0,0,1,269.708,76.2a14.966,14.966,0,0,1,7.772-3.321,17.329,17.329,0,0,1,1.908-.141,14.955,14.955,0,0,1,12.788,7.136A15.233,15.233,0,0,1,293.094,94a13.458,13.458,0,0,1-3.674,4.8,72.14,72.14,0,0,0-17.381,21.549,74.486,74.486,0,0,0-7.984,24.3,73.817,73.817,0,0,0-1.484,23.669q1.908,19.924,14.767,37.305A74.22,74.22,0,0,0,308.5,230.647a77.326,77.326,0,0,0,19.43,5.37.529.529,0,0,1,.353.071,75.735,75.735,0,0,0,15.544,1.342,74.791,74.791,0,0,0,38.294-11.375q18.335-11.34,27.7-29.039a73.187,73.187,0,0,0,7.419-22.044A73.649,73.649,0,0,0,419,149.113a72.317,72.317,0,0,0-7.984-26.566,13.488,13.488,0,0,1-1.554-5.935,15.047,15.047,0,0,1,6.147-12.647,14.634,14.634,0,0,1,8.761-2.9,15.068,15.068,0,0,1,7.419,1.908,14.646,14.646,0,0,1,6.005,6.076A107.784,107.784,0,0,1,450.228,147.7,105.57,105.57,0,0,1,450.228,174.407Z" transform="translate(-230.554 -72.736)" fill="#09bc8a"/>
      <path id="Path_168" data-name="Path 168" d="M450.228,174.407c-.141,1.413-.424,2.9-.707,4.381a105.69,105.69,0,0,1-11.375,31.3c-9.115,16.6-22.68,30.452-40.485,41.332q-26.389,16.215-55.039,17.24a108.7,108.7,0,0,1-23.6-1.625c-.353-.071-.777-.141-1.131-.212a105.924,105.924,0,0,1-19.995-6.783q-26.177-11.764-44.583-36.669-18.546-25.223-21.973-53.556a103.985,103.985,0,0,1,1.413-34.126,35.7,35.7,0,0,1,.848-3.745,105.28,105.28,0,0,1,10.033-24.587A107.676,107.676,0,0,1,269.708,76.2a14.966,14.966,0,0,1,7.772-3.321,17.329,17.329,0,0,1,1.908-.141,14.955,14.955,0,0,1,12.788,7.136A15.233,15.233,0,0,1,293.094,94a13.458,13.458,0,0,1-3.674,4.8,72.14,72.14,0,0,0-17.381,21.549,74.486,74.486,0,0,0-7.984,24.3,73.817,73.817,0,0,0-1.484,23.669q1.908,19.924,14.767,37.305A74.22,74.22,0,0,0,308.5,230.647a77.326,77.326,0,0,0,19.43,5.37.529.529,0,0,1,.353.071,75.735,75.735,0,0,0,15.544,1.342,74.791,74.791,0,0,0,38.294-11.375q18.335-11.34,27.7-29.039a73.187,73.187,0,0,0,7.419-22.044A73.649,73.649,0,0,0,419,149.113a72.317,72.317,0,0,0-7.984-26.566,13.488,13.488,0,0,1-1.554-5.935,15.047,15.047,0,0,1,6.147-12.647,14.634,14.634,0,0,1,8.761-2.9,15.068,15.068,0,0,1,7.419,1.908,14.646,14.646,0,0,1,6.005,6.076A107.784,107.784,0,0,1,450.228,147.7,105.57,105.57,0,0,1,450.228,174.407Z" transform="translate(-230.554 -72.736)" fill="url(#linear-gradient)"/>
    </g>
    <path id="Path_169" data-name="Path 169" d="M667.551,196.276a13.435,13.435,0,0,1-4.372,9.921,11.852,11.852,0,0,1-2.074,1.569,13.343,13.343,0,0,1-8.8,1.906,12.872,12.872,0,0,1-8.352-4.54,59.649,59.649,0,0,0-33.463-20.515,61.126,61.126,0,0,0-8.52-.392,60.082,60.082,0,0,0-21.86,4.82,12.783,12.783,0,0,1-8.52.5,13.25,13.25,0,0,1-7.9-6.054,12.413,12.413,0,0,1-1.121-2.3,13.193,13.193,0,0,1,4.989-15.583,6.147,6.147,0,0,1,2.018-1.177,84.028,84.028,0,0,1,70.906,3.868,82.84,82.84,0,0,1,23.878,19.338,13.557,13.557,0,0,1,3.2,8.632Z" transform="matrix(0.998, -0.07, 0.07, 0.998, -329.344, 2295.323)" fill="url(#linear-gradient-2)"/>
  </g>
</svg>
