<?xml version="1.0" encoding="utf-8"?>
<!-- Generator: Adobe Illustrator 24.1.2, SVG Export Plug-In . SVG Version: 6.00 Build 0)  -->
<svg version="1.1" id="Layer_1" xmlns="http://www.w3.org/2000/svg" xmlns:xlink="http://www.w3.org/1999/xlink" x="0px" y="0px"
	 viewBox="0 0 359 68" style="enable-background:new 0 0 359 68;" xml:space="preserve">
<style type="text/css">
	.st0{fill:#FFFFFF;}
	.st1{fill:#5A709D;}
</style>
<g>
	<path class="st0" d="M260.6,3c-3.4-1.7-7.6-2.5-12.5-2.5h-35.3v3h8.8v12.1h13.5V3.5h8.1c7.2,0,11.2,4.1,12.1,12.2
		c0.1,1,0.1,1.9,0.1,3c0,9.7-3.9,14.9-11.7,15.5c-0.4,0-0.9,0-1.3,0h-7.2v-3.4h-13.5v32.6h-8.8v3H246c-0.4-1.8-1.4-2.8-3-3h-8v-26
		h9.2c12.3,0,20.3-3.7,23.8-11.2c1.2-2.5,1.8-5.2,1.8-8.2C269.8,11,266.7,6,260.6,3z"/>
</g>
<g>
	<path class="st0" d="M132.8,63.5c-0.4-0.1-0.9-0.1-1.3-0.1h-2.3L111.9,35c7.5-2,12.2-5.9,14.2-11.8c0.6-1.8,0.9-3.7,0.9-5.5
		c0-5.5-2.4-9.9-7.2-13.2c-4-2.7-8.9-4.1-14.7-4.1H69.9v3h8.8v35.3h13.5v-2.6h7l16.7,30.1l18.4-0.1
		C134.2,64.6,133.7,63.7,132.8,63.5z M107.1,30.8c-2,1.4-4.2,2.1-6.8,2.1h-8.2V3.4h7.6c5.9,0,9.9,2.7,11.9,8.2
		c0.7,2,1.1,4.1,1.1,6.4C112.7,23.8,110.8,28.1,107.1,30.8z"/>
	<polygon class="st0" points="78.6,63.3 69.9,63.3 69.9,66.2 100.9,66.2 100.9,63.3 92.1,63.3 92.1,63.2 78.6,63.2 	"/>
</g>
<g>
	<path class="st0" d="M305.4,63.3H295v3h34.2c-0.6-1.8-1.5-2.8-2.8-3h-7.5v-0.1L305.4,63.3L305.4,63.3z"/>
	<path class="st0" d="M284.3,0.5l-0.5,22.9h3.3l2.8-9.1c1.8-5.7,4.6-9.1,8.4-10.3c1.2-0.4,2.5-0.5,3.9-0.5h3.2v35.3h13.5V3.5h3.3
		c5.3,0,9.1,2.7,11.4,8.1c0.4,0.9,0.7,1.8,1,2.7l2.8,9.1h3.2l-0.4-22.9H284.3z"/>
</g>
<g>
	<path class="st0" d="M175,34.4L158.5,3.5h8.3v-3h-28.7v3h5.5L163.6,39v24.3h-9.2v3h31.8c-0.4-1.8-1.4-2.8-3-3H177V38.1l3.6-7.4
		h-3.8L175,34.4z"/>
	<path class="st0" d="M192.4,6.5c1.4-2,3.3-3,5.6-3.1c1.8-0.4,2.8-1.4,3-3h-19.4v3h8.8l-6,12.1h3.7L192.4,6.5z"/>
</g>
<g>
	<path class="st0" d="M27.1,4.2C29.2,3.4,31.6,3,34,3c8.1,0,13.9,4,17.4,11.9c0.8,1.9,1.5,3.9,2.1,6.2H57L56.7,0.4
		c-1.8,0-2.9,0.6-3.2,1.8C53.4,3,53.3,4,53.3,5.3c-5.9-3.6-12.8-5.5-20.5-5.5C21-0.1,12,4.1,5.8,12.4c-2.4,3.3-4.2,6.9-5.3,10.7
		h14.2C16.3,13.1,20.4,6.8,27.1,4.2z"/>
	<path class="st0" d="M37,62.9c-1.2,0.1-2.4,0.2-3.6,0.2c-9.3-0.1-15.3-5.5-17.9-16.2H1.9c1.5,3.4,3.5,6.5,6.2,9.3
		c6.3,6.6,14.5,9.9,24.7,9.9c7.3-0.1,14.3-1.9,21-5.5c-0.1,2.8,0.5,4.3,1.7,4.7c0.5,0.1,1.1,0.2,1.9,0.2V44.9h-3.2
		C51.2,55.7,45.5,61.7,37,62.9z"/>
</g>
<rect x="8.6" y="34.5" class="st1" width="37" height="4"/>
<rect x="0" y="34.5" class="st1" width="5.6" height="4"/>
<rect x="6.7" y="27.8" class="st1" width="5.6" height="4"/>
<rect x="71.9" y="22.3" class="st1" width="38" height="4"/>
<rect x="83.6" y="46.3" class="st1" width="5.6" height="4"/>
<rect x="77.1" y="50.8" class="st1" width="5.6" height="4"/>
<rect x="172.6" y="20" class="st1" width="25" height="4"/>
<rect x="217.3" y="20.6" class="st1" width="25" height="4"/>
<rect x="258" y="38.6" class="st1" width="5.6" height="4"/>
<rect x="250" y="44.6" class="st1" width="5.6" height="4"/>
<rect x="288.2" y="21.3" class="st1" width="33" height="4"/>
<rect x="308.6" y="46.5" transform="matrix(-1 -1.224647e-16 1.224647e-16 -1 639.8619 96.9639)" class="st1" width="22.6" height="4"/>
<rect x="335.3" y="46.5" transform="matrix(-1 -1.224647e-16 1.224647e-16 -1 676.2458 96.9639)" class="st1" width="5.6" height="4"/>
<rect x="343.6" y="46.5" transform="matrix(-1 -1.224647e-16 1.224647e-16 -1 692.8511 96.9639)" class="st1" width="5.6" height="4"/>
<rect x="272" y="38.3" class="st1" width="5.6" height="4"/>
<rect x="353.3" y="27.3" class="st1" width="5.6" height="4"/>
</svg>
