<?xml version="1.0" encoding="utf-8"?>
<!-- Generator: Adobe Illustrator 24.1.2, SVG Export Plug-In . SVG Version: 6.00 Build 0)  -->
<svg version="1.1" id="Layer_1" xmlns="http://www.w3.org/2000/svg" xmlns:xlink="http://www.w3.org/1999/xlink" x="0px" y="0px"
	 viewBox="0 0 59 70" style="enable-background:new 0 0 59 70;" xml:space="preserve">
<style type="text/css">
	.st0{fill:#FFFFFF;}
</style>
<g>
	<path class="st0" d="M28.5,5.5c2.1-0.8,4.5-1.2,6.9-1.2c8.1,0,13.9,4,17.4,11.9c0.8,1.9,1.5,3.9,2.1,6.2h3.4L58.1,1.8
		c-1.8,0-2.9,0.6-3.2,1.8c-0.1,0.7-0.2,1.7-0.2,3.1c-5.9-3.6-12.8-5.5-20.5-5.5c-11.8,0-20.7,4.2-26.9,12.5C4.8,17,3,20.6,1.9,24.4
		h14.2C17.6,14.5,21.8,8.2,28.5,5.5z"/>
	<path class="st0" d="M38.4,64.2c-1.2,0.1-2.4,0.2-3.6,0.2c-9.3-0.1-15.3-5.5-17.9-16.2H3.3c1.5,3.4,3.5,6.5,6.2,9.3
		c6.3,6.6,14.5,9.9,24.7,9.9c7.3-0.1,14.3-1.9,21-5.5c-0.1,2.8,0.5,4.3,1.7,4.7c0.5,0.1,1.1,0.2,1.9,0.2V46.3h-3.2
		C52.5,57,46.8,63,38.4,64.2z"/>
</g>
<rect x="10" y="35.9" class="st0" width="37" height="4"/>
<rect x="1.3" y="35.9" class="st0" width="5.6" height="4"/>
<rect x="8.1" y="29.1" class="st0" width="5.6" height="4"/>
</svg>
