<?xml version="1.0" encoding="utf-8"?>
<!-- Generator: Adobe Illustrator 23.1.1, SVG Export Plug-In . SVG Version: 6.00 Build 0)  -->
<svg version="1.1" id="Layer_1" xmlns="http://www.w3.org/2000/svg" xmlns:xlink="http://www.w3.org/1999/xlink" x="0px" y="0px"
	 viewBox="0 0 527 252" style="enable-background:new 0 0 527 252;" xml:space="preserve">
<style type="text/css">
	.st0{fill:#FFFFFF;}
</style>
<g>
	<path class="st0" d="M72.48,23.1h-24.1v52.8h-16.6V23.1H7.68V7.9h64.8V23.1z"/>
	<path class="st0" d="M146.48,75.9h-16.5V49.5h-29.9v26.4h-16.4v-68h16.4v26.4h29.9V7.9h16.5V75.9z"/>
	<path class="st0" d="M213.78,7.9v15.2h-35.7v11.7h29.8V49h-29.8v11.7h35.7v15.2h-52.1v-68H213.78z"/>
	<path class="st0" d="M310.88,75.9h-16.5V41.2l-16.3,34.7h-18.3l-16.3-34.7v34.7h-16.4v-68h18.2l23.7,49.9l23.6-49.9h18.3V75.9z"/>
	<path class="st0" d="M238.58,106.1h-24.1v52.8h-16.6v-52.8h-24.1V90.9h64.8V106.1z"/>
	<path class="st0" d="M312.58,158.9h-16.5v-26.4h-29.9v26.4h-16.4v-68h16.4v26.4h29.9V90.9h16.5V158.9z"/>
	<path class="st0" d="M384.88,116.4c0,9.8-4.8,18.1-12.1,22l14,20.5h-20.4l-10.2-16.9h-12v16.9h-16.4v-68h32.9
		C374.48,90.9,384.88,101.6,384.88,116.4z M344.18,106.1v20.7h14.1c5.6,0,10.1-4.7,10.1-10.4c0-5.6-4.5-10.3-10-10.3H344.18z"/>
	<path class="st0" d="M450.58,90.9v15.2h-35.7v11.7h29.8V132h-29.8v11.7h35.7v15.2h-52.1v-68H450.58z"/>
	<path class="st0" d="M515.98,90.9v15.2h-35.7v11.7h29.8V132h-29.8v11.7h35.7v15.2h-52.1v-68H515.98z"/>
	<path class="st0" d="M74.88,241.9h-16.5v-26.4h-29.9v26.4h-16.4v-68h16.4v26.4h29.9v-26.4h16.5V241.9z"/>
	<path class="st0" d="M140.78,231.3h-32.8l-4.5,10.6h-17.4l29.1-68h18.3l29.2,68h-17.5L140.78,231.3z M135.08,217.9l-10.6-25.4
		l-10.8,25.4H135.08z"/>
	<path class="st0" d="M269.19,173.9l-25.5,68h-16.8l-14.3-44.3l-16,44.3h-17l-22.6-68h17.5l14.1,44.1l15.5-44.1h17.9l13.8,43.9
		l15.8-43.9H269.19z"/>
	<path class="st0" d="M320.08,201.3l28.4,40.6h-21.3l-18.6-28.1l-11.7,12.8v15.3h-16.4v-68h16.4v29.9l26-29.9h20.6L320.08,201.3z"/>
	<path class="st0" d="M406.38,195.4h-16.3c0-3.4-4-8-11-8c-4.9,0-10.9,2.2-10.9,6.1c0,3.3,4.5,4.6,14.1,7.1
		c10.7,2.8,25.8,6.4,25.8,21.4c0,13-11.4,21.1-27.3,21.1c-21.3,0-30.2-14.4-30.2-25h16.3c0,0,1.3,10.8,14.8,10.8c7.3,0,10-3.1,10-6
		c0-4.3-5.7-5.8-12-7.3c-10.2-2.4-28.1-6.2-28.1-21.3c0-12.4,12.2-21.6,27.7-21.6C396.98,172.7,406.38,184.8,406.38,195.4z"/>
</g>
<rect x="4.24" y="90.03" class="st0" width="156.64" height="70.33"/>
<rect x="330.88" y="5.2" class="st0" width="189" height="70.33"/>
<rect x="415.88" y="173.2" class="st0" width="104" height="70.33"/>
</svg>
