<?xml version="1.0" encoding="utf-8"?>
<!-- Generator: Adobe Illustrator 23.1.1, SVG Export Plug-In . SVG Version: 6.00 Build 0)  -->
<svg version="1.1" id="Layer_1" xmlns="http://www.w3.org/2000/svg" xmlns:xlink="http://www.w3.org/1999/xlink" x="0px" y="0px"
	 viewBox="0 0 148 148" style="enable-background:new 0 0 148 148;" xml:space="preserve">
<style type="text/css">
	.st0{fill:#FFFFFF;}
</style>
<g>
	<g>
		<polygon class="st0" points="63.8,49.74 27.09,86.11 37.23,96.16 73.77,60.06 81.21,52.75 75.25,61.58 109.66,96.12 119.8,85.98 
			83.91,49.91 73.86,39.68 		"/>
	</g>
	<g>
		<path class="st0" d="M73.77,148.1c-40.7,0-73.82-33.11-73.82-73.82S33.06,0.46,73.77,0.46s73.82,33.11,73.82,73.82
			S114.47,148.1,73.77,148.1z M73.77,11.36c-34.7,0-62.92,28.23-62.92,62.92s28.23,62.92,62.92,62.92s62.92-28.23,62.92-62.92
			S108.46,11.36,73.77,11.36z"/>
	</g>
</g>
</svg>
