<svg xmlns="http://www.w3.org/2000/svg" xmlns:xlink="http://www.w3.org/1999/xlink" width="251.206" height="250.544" viewBox="0 0 251.206 250.544">
  <defs>
    <filter id="Ellipse_25" x="31.431" y="35.55" width="184" height="184" filterUnits="userSpaceOnUse">
      <feOffset dy="3" input="SourceAlpha"/>
      <feGaussianBlur stdDeviation="8" result="blur"/>
      <feFlood flood-opacity="0.161"/>
      <feComposite operator="in" in2="blur"/>
      <feComposite in="SourceGraphic"/>
    </filter>
    <linearGradient id="linear-gradient" x1="0.5" x2="0.5" y2="1" gradientUnits="objectBoundingBox">
      <stop offset="0" stop-color="#09bc8a"/>
      <stop offset="1" stop-color="#65f4cc"/>
    </linearGradient>
  </defs>
  <g id="Group_218" data-name="Group 218" transform="translate(-1026.569 -2982.127)">
    <g transform="matrix(1, 0, 0, 1, 1026.57, 2982.13)" filter="url(#Ellipse_25)">
      <circle id="Ellipse_25-2" data-name="Ellipse 25" cx="68" cy="68" r="68" transform="translate(55.43 56.55)" fill="#fff"/>
    </g>
    <g id="Group_155" data-name="Group 155" transform="translate(1026.569 3039.65) rotate(-10)">
      <path id="Path_148" data-name="Path 148" d="M450.228,174.407c-.141,1.413-.424,2.9-.707,4.381a105.69,105.69,0,0,1-11.375,31.3c-9.115,16.6-22.68,30.452-40.485,41.332q-26.389,16.215-55.039,17.24a108.7,108.7,0,0,1-23.6-1.625c-.353-.071-.777-.141-1.131-.212a105.924,105.924,0,0,1-19.995-6.783q-26.177-11.764-44.583-36.669-18.546-25.223-21.973-53.556a103.985,103.985,0,0,1,1.413-34.126,35.7,35.7,0,0,1,.848-3.745,105.28,105.28,0,0,1,10.033-24.587A107.676,107.676,0,0,1,269.708,76.2a14.966,14.966,0,0,1,7.772-3.321,17.329,17.329,0,0,1,1.908-.141,14.955,14.955,0,0,1,12.788,7.136A15.233,15.233,0,0,1,293.094,94a13.458,13.458,0,0,1-3.674,4.8,72.14,72.14,0,0,0-17.381,21.549,74.486,74.486,0,0,0-7.984,24.3,73.817,73.817,0,0,0-1.484,23.669q1.908,19.924,14.767,37.305A74.22,74.22,0,0,0,308.5,230.647a77.326,77.326,0,0,0,19.43,5.37.529.529,0,0,1,.353.071,75.735,75.735,0,0,0,15.544,1.342,74.791,74.791,0,0,0,38.294-11.375q18.335-11.34,27.7-29.039a73.187,73.187,0,0,0,7.419-22.044A73.649,73.649,0,0,0,419,149.113a72.317,72.317,0,0,0-7.984-26.566,13.488,13.488,0,0,1-1.554-5.935,15.047,15.047,0,0,1,6.147-12.647,14.634,14.634,0,0,1,8.761-2.9,15.068,15.068,0,0,1,7.419,1.908,14.646,14.646,0,0,1,6.005,6.076A107.784,107.784,0,0,1,450.228,147.7,105.57,105.57,0,0,1,450.228,174.407Z" transform="translate(-230.554 -72.736)" fill="url(#linear-gradient)"/>
    </g>
    <path id="Path_178" data-name="Path 178" d="M667.551,196.276a13.435,13.435,0,0,1-4.372,9.921,11.852,11.852,0,0,1-2.074,1.569,13.343,13.343,0,0,1-8.8,1.906,12.872,12.872,0,0,1-8.352-4.54,59.649,59.649,0,0,0-33.463-20.515,61.126,61.126,0,0,0-8.52-.392,60.082,60.082,0,0,0-21.86,4.82,12.783,12.783,0,0,1-8.52.5,13.25,13.25,0,0,1-7.9-6.054,12.413,12.413,0,0,1-1.121-2.3,13.193,13.193,0,0,1,4.989-15.583,6.147,6.147,0,0,1,2.018-1.177,84.028,84.028,0,0,1,70.906,3.868,82.84,82.84,0,0,1,23.878,19.338,13.557,13.557,0,0,1,3.2,8.632Z" transform="translate(511.477 2977.962) rotate(-13)" fill="url(#linear-gradient)"/>
    <g id="shield" transform="translate(1065.001 3074.678)">
      <g id="Group_158" data-name="Group 158" transform="translate(61.703 26.523)">
        <g id="Group_157" data-name="Group 157" transform="translate(0)">
          <path id="Path_181" data-name="Path 181" d="M97.425,186a1.426,1.426,0,1,0,1.426,1.426A1.427,1.427,0,0,0,97.425,186Z" transform="translate(-95.999 -185.998)"/>
        </g>
      </g>
      <g id="Group_160" data-name="Group 160" transform="translate(70.259 20.819)">
        <g id="Group_159" data-name="Group 159" transform="translate(0)">
          <path id="Path_182" data-name="Path 182" d="M183.093,154.554h-7.13v-7.13A1.426,1.426,0,0,0,174.537,146h-8.556a1.426,1.426,0,0,0-1.426,1.426v7.13h-7.13A1.426,1.426,0,0,0,156,155.98v8.556a1.426,1.426,0,0,0,1.426,1.426h7.13v7.13a1.426,1.426,0,0,0,1.426,1.426h8.556a1.426,1.426,0,0,0,1.426-1.426v-7.13h7.13a1.426,1.426,0,0,0,1.426-1.426V155.98A1.426,1.426,0,0,0,183.093,154.554Zm-1.426,8.556h-7.13a1.426,1.426,0,0,0-1.426,1.426v7.13h-5.7v-7.13a1.426,1.426,0,0,0-1.426-1.426h-7.13v-5.7h7.13a1.426,1.426,0,0,0,1.426-1.426v-7.13h5.7v7.13a1.426,1.426,0,0,0,1.426,1.426h7.13Z" transform="translate(-155.999 -145.998)"/>
        </g>
      </g>
      <g id="Group_162" data-name="Group 162" transform="translate(55.999)">
        <g id="Group_161" data-name="Group 161" transform="translate(0)">
          <path id="Path_183" data-name="Path 183" d="M106.533,4.384a14.2,14.2,0,0,1-7.754,2.291,14.236,14.236,0,0,1-10.931-5.1h0a4.31,4.31,0,0,0-6.657,0,14.236,14.236,0,0,1-10.931,5.1,14.2,14.2,0,0,1-7.754-2.291A4.258,4.258,0,0,0,56,8.029V37.116a29.741,29.741,0,0,0,5.843,17.8A60.427,60.427,0,0,0,83.957,72.9a1.425,1.425,0,0,0,1.125,0A60.43,60.43,0,0,0,107.2,54.917a29.748,29.748,0,0,0,5.844-17.8V8.03A4.258,4.258,0,0,0,106.533,4.384ZM104.916,53.2a59.144,59.144,0,0,1-20.4,16.812A58.962,58.962,0,0,1,64.122,53.2a26.87,26.87,0,0,1-5.271-16.085V8.03a1.407,1.407,0,0,1,2.1-1.254,17.051,17.051,0,0,0,9.307,2.751A17.081,17.081,0,0,0,83.375,3.4a1.459,1.459,0,0,1,2.287,0A17.083,17.083,0,0,0,98.779,9.527a17.051,17.051,0,0,0,9.307-2.751,1.407,1.407,0,0,1,2.1,1.254V37.116h0A26.879,26.879,0,0,1,104.916,53.2Z" transform="translate(-55.999)"/>
        </g>
      </g>
      <g id="Group_164" data-name="Group 164" transform="translate(61.703 6.922)">
        <g id="Group_163" data-name="Group 163">
          <path id="Path_184" data-name="Path 184" d="M141.029,53.029a1.427,1.427,0,0,0-1.3-.179A19.913,19.913,0,0,1,119.765,48.9a1.426,1.426,0,0,0-1.9,0A19.913,19.913,0,0,1,97.9,52.849,1.426,1.426,0,0,0,96,54.193v9.67a1.426,1.426,0,1,0,2.852,0V56.121a22.76,22.76,0,0,0,19.964-4.289,22.76,22.76,0,0,0,19.964,4.289V78.733a21.116,21.116,0,0,1-4.126,12.654,52.786,52.786,0,0,1-15.825,13.8,53.268,53.268,0,0,1-15.852-13.8,21.134,21.134,0,0,1-4.126-12.657V75.271a1.426,1.426,0,1,0-2.852,0v3.462A24,24,0,0,0,100.7,93.1a56.3,56.3,0,0,0,17.441,14.966,1.426,1.426,0,0,0,1.371,0A55.756,55.756,0,0,0,136.933,93.1a23.986,23.986,0,0,0,4.7-14.369V54.193A1.426,1.426,0,0,0,141.029,53.029Z" transform="translate(-96 -48.539)"/>
        </g>
      </g>
    </g>
  </g>
</svg>
