<?xml version="1.0" encoding="utf-8"?>
<!-- Generator: Adobe Illustrator 23.1.1, SVG Export Plug-In . SVG Version: 6.00 Build 0)  -->
<svg version="1.1" id="Layer_1" xmlns="http://www.w3.org/2000/svg" xmlns:xlink="http://www.w3.org/1999/xlink" x="0px" y="0px"
	 viewBox="0 0 149 23" style="enable-background:new 0 0 149 23;" xml:space="preserve">
<style type="text/css">
	.st0{fill:#FFFFFF;}
</style>
<g>
	<g>
		<path class="st0" d="M21.81,5.24H13.7v0.83V23H8.12V5.24H0.01V0.12h21.8V5.24z"/>
		<path class="st0" d="M56.79,23h-5.55v-8.88l-9.4-0.03l-0.66,0.03V23h-5.52V0.12h5.52v8.88h10.06V0.12h5.55V23z"/>
		<path class="st0" d="M107.86,16.1c2.46-1.31,4.07-4.1,4.07-7.4c0-4.98-3.5-8.58-8.14-8.58H92.72V23h5.52v-5.69V12.2V5.67V5.24
			h4.78c1.85,0,3.36,1.58,3.36,3.47c0,1.92-1.51,3.5-3.4,3.5h-4.97l-0.26,5.11h4.53L105.7,23h6.86L107.86,16.1z"/>
		<path class="st0" d="M148.79,11.53c0,6.66-4.95,11.47-12.08,11.47h-10.13V0.16l10.13-0.03C144.25,0.09,148.79,4.94,148.79,11.53z
			 M132.11,17.89h4.61c3.83,0,6.49-2.52,6.49-6.36c0-4.1-2.59-6.29-6.49-6.29h-4.61v0.55v11.44V17.89z"/>
	</g>
	<g>
		<path class="st0" d="M77.78,0.12v1.72h-4.03v1.32h3.36v1.6h-3.36v1.32h4.03V7.8H71.9V0.12H77.78z"/>
		<path class="st0" d="M75.92,12.49v2.9h-1.86v-2.9l-3.27-4.78h2.13L75,10.86l2.06-3.14h2.16L75.92,12.49z"/>
		<path class="st0" d="M77.8,15.32v1.72h-4.03v1.32h3.37v1.6h-3.37v1.32h4.03V23h-5.88v-7.68H77.8z"/>
	</g>
</g>
</svg>
