<svg xmlns="http://www.w3.org/2000/svg" xmlns:xlink="http://www.w3.org/1999/xlink" width="251.206" height="250.412" viewBox="0 0 251.206 250.412">
  <defs>
    <filter id="Ellipse_24" x="36.074" y="38.282" width="184" height="184" filterUnits="userSpaceOnUse">
      <feOffset dy="3" input="SourceAlpha"/>
      <feGaussianBlur stdDeviation="8" result="blur"/>
      <feFlood flood-opacity="0.161"/>
      <feComposite operator="in" in2="blur"/>
      <feComposite in="SourceGraphic"/>
    </filter>
    <linearGradient id="linear-gradient" x1="0.5" x2="0.5" y2="1" gradientUnits="objectBoundingBox">
      <stop offset="0" stop-color="#09bc8a"/>
      <stop offset="1" stop-color="#65f4cc"/>
    </linearGradient>
  </defs>
  <g id="Group_217" data-name="Group 217" transform="translate(-591.926 -2979.396)">
    <g transform="matrix(1, 0, 0, 1, 591.93, 2979.4)" filter="url(#Ellipse_24)">
      <circle id="Ellipse_24-2" data-name="Ellipse 24" cx="68" cy="68" r="68" transform="translate(60.07 59.28)" fill="#fff"/>
    </g>
    <g id="Group_154" data-name="Group 154" transform="matrix(-0.985, 0.174, -0.174, -0.985, 843.133, 3172.417)">
      <path id="Path_148" data-name="Path 148" d="M450.228,174.407c-.141,1.413-.424,2.9-.707,4.381a105.69,105.69,0,0,1-11.375,31.3c-9.115,16.6-22.68,30.452-40.485,41.332q-26.389,16.215-55.039,17.24a108.7,108.7,0,0,1-23.6-1.625c-.353-.071-.777-.141-1.131-.212a105.924,105.924,0,0,1-19.995-6.783q-26.177-11.764-44.583-36.669-18.546-25.223-21.973-53.556a103.985,103.985,0,0,1,1.413-34.126,35.7,35.7,0,0,1,.848-3.745,105.28,105.28,0,0,1,10.033-24.587A107.676,107.676,0,0,1,269.708,76.2a14.966,14.966,0,0,1,7.772-3.321,17.329,17.329,0,0,1,1.908-.141,14.955,14.955,0,0,1,12.788,7.136A15.233,15.233,0,0,1,293.094,94a13.458,13.458,0,0,1-3.674,4.8,72.14,72.14,0,0,0-17.381,21.549,74.486,74.486,0,0,0-7.984,24.3,73.817,73.817,0,0,0-1.484,23.669q1.908,19.924,14.767,37.305A74.22,74.22,0,0,0,308.5,230.647a77.326,77.326,0,0,0,19.43,5.37.529.529,0,0,1,.353.071,75.735,75.735,0,0,0,15.544,1.342,74.791,74.791,0,0,0,38.294-11.375q18.335-11.34,27.7-29.039a73.187,73.187,0,0,0,7.419-22.044A73.649,73.649,0,0,0,419,149.113a72.317,72.317,0,0,0-7.984-26.566,13.488,13.488,0,0,1-1.554-5.935,15.047,15.047,0,0,1,6.147-12.647,14.634,14.634,0,0,1,8.761-2.9,15.068,15.068,0,0,1,7.419,1.908,14.646,14.646,0,0,1,6.005,6.076A107.784,107.784,0,0,1,450.228,147.7,105.57,105.57,0,0,1,450.228,174.407Z" transform="translate(-230.554 -72.736)" fill="url(#linear-gradient)"/>
    </g>
    <path id="Path_177" data-name="Path 177" d="M667.551,196.276a13.435,13.435,0,0,1-4.372,9.921,11.852,11.852,0,0,1-2.074,1.569,13.343,13.343,0,0,1-8.8,1.906,12.872,12.872,0,0,1-8.352-4.54,59.649,59.649,0,0,0-33.463-20.515,61.126,61.126,0,0,0-8.52-.392,60.082,60.082,0,0,0-21.86,4.82,12.783,12.783,0,0,1-8.52.5,13.25,13.25,0,0,1-7.9-6.054,12.413,12.413,0,0,1-1.121-2.3,13.193,13.193,0,0,1,4.989-15.583,6.147,6.147,0,0,1,2.018-1.177,84.028,84.028,0,0,1,70.906,3.868,82.84,82.84,0,0,1,23.878,19.338,13.557,13.557,0,0,1,3.2,8.632Z" transform="translate(1357.439 3233.973) rotate(167)" fill="url(#linear-gradient)"/>
    <g id="medical" transform="translate(666 3053.678)">
      <path id="Path_179" data-name="Path 179" d="M320.732,317.66H316.31v-4.386A1.245,1.245,0,0,0,315.072,312H311.11a1.306,1.306,0,0,0-1.309,1.273v4.386h-4.493A1.306,1.306,0,0,0,304,318.933V322.9a1.306,1.306,0,0,0,1.309,1.273H309.8V328.7a1.306,1.306,0,0,0,1.309,1.273h3.962a1.245,1.245,0,0,0,1.238-1.273v-4.528h4.422a1.245,1.245,0,0,0,1.238-1.273v-3.962a1.245,1.245,0,0,0-1.238-1.273Zm-.743,4.528h-4.351a1.306,1.306,0,0,0-1.309,1.274v4.528h-2.547v-4.528a1.245,1.245,0,0,0-1.238-1.274h-4.563v-2.547h4.563a1.245,1.245,0,0,0,1.238-1.273v-4.386h2.547v4.386a1.306,1.306,0,0,0,1.309,1.273h4.351Z" transform="translate(-242.097 -251.541)"/>
      <path id="Path_180" data-name="Path 180" d="M71.218,52.133a16.961,16.961,0,0,0-13.923,7.282q-.4-.123-.757-.239l-.961-2.727a11.055,11.055,0,0,0,4.008-7.386c2-.542,3.833-2.89,4.569-6a3.36,3.36,0,0,0-1.444-3.9,2.471,2.471,0,0,0-1.129-.274c.065-.488.133-1.086.2-1.819.164-1.716.269-3.449.269-3.888,0-.311.006-.632.013-.972.053-2.71.118-6.081-2.871-9.1h0a14.271,14.271,0,0,0-20.508.492l-.233.261c-1.5,1.679-3.56,3.978-3.413,9.866a38.139,38.139,0,0,0,1.138,5.23,2.5,2.5,0,0,0-.95.293,3.328,3.328,0,0,0-1.38,3.814c.736,3.117,2.577,5.468,4.58,6A11.349,11.349,0,0,0,42.4,56.386l-1.268,2.608c-.906.284-1.926.565-2.98.86C31.342,61.763,22,64.376,22,72.867v8.877c0,2.1,1.122,4.326,3.135,4.326H71.3a16.968,16.968,0,1,0-.086-33.936ZM39.928,25.179l.24-.269a12,12,0,0,1,8.662-3.925A12.125,12.125,0,0,1,57.784,24.5c2.4,2.428,2.347,5.215,2.3,7.673-.007.35-.013.68-.013,1.01,0,.21-.021.646-.057,1.2a11.353,11.353,0,0,0-2.071-4.506l-.073-.147a.99.99,0,0,0-1.788.033c-1.6,3.51-3.177,3.369-5.8,3.135-.3-.027-.613-.055-.928-.077a1.35,1.35,0,0,0-1.466.764c-.323.75.126,1.56.947,2.52-2.615-.312-3.278-2.225-3.875-3.95-.414-1.2-.884-2.555-2.25-2.555a4.614,4.614,0,0,0-3.5,1.51A8.747,8.747,0,0,0,37.3,35.275a12.536,12.536,0,0,1-.283-1.6C36.891,28.572,38.5,26.769,39.928,25.179Zm.389,22.971a1,1,0,0,0-.99-.951h-.043c-1.451,0-2.982-2.366-3.509-4.594-.2-.855.063-1.437.394-1.616.375-.2.774.154.928.316a1.257,1.257,0,0,0,1.83-1.125c-.105-1.519,0-5.868,1.732-7.723a2.651,2.651,0,0,1,1.936-.876,7.034,7.034,0,0,1,.5,1.22c.734,2.121,2.1,6.067,8.155,5.2a.99.99,0,0,0,.53-1.71,17.978,17.978,0,0,1-1.365-1.4c2.329.2,4.7.278,6.667-2.811,1.241,2.327,1.887,6.954,2.045,8.791a.99.99,0,0,0,.986.906c.028,0,.057,0,.086,0a.99.99,0,0,0,.827-.6c.2-.193.494-.4.778-.256.363.187.625.826.424,1.684C61.7,44.834,60.165,47.2,58.714,47.2H58.69a1,1,0,0,0-.544.151.988.988,0,0,0-.465.811c-.042.81-.426,4.951-3.8,7.049l-.016.01A9.141,9.141,0,0,1,49,56.443a8.95,8.95,0,0,1-4.855-1.25c-3.327-2.1-3.772-6.235-3.827-7.043Zm2.41,12.092L44.1,57.421a11.456,11.456,0,0,0,4.9,1,11.716,11.716,0,0,0,4.836-.953l.994,2.82a.991.991,0,0,0,.615.608q.37.126.784.258a16.853,16.853,0,0,0-1.2,2.85,7.928,7.928,0,0,1-11.767.258,7.408,7.408,0,0,1-1.836-3.29q.364-.112.714-.225a.99.99,0,0,0,.584-.509Zm-18.745,21.5V72.867c0-6.988,8.161-9.271,14.7-11.1.277-.078.559-.154.828-.23a9.93,9.93,0,0,0,14.839,5.676,16.973,16.973,0,0,0,8.917,16.882H25.135C24.5,84.089,23.981,82.829,23.981,81.744Zm47.237,2.345A14.988,14.988,0,1,1,86.205,69.1,14.988,14.988,0,0,1,71.218,84.089Z" transform="translate(0 0)"/>
    </g>
  </g>
</svg>
