<svg xmlns="http://www.w3.org/2000/svg" xmlns:xlink="http://www.w3.org/1999/xlink" width="226.884" height="233.656" viewBox="0 0 226.884 233.656">
  <defs>
    <filter id="Ellipse_21" x="15.979" y="27.701" width="184" height="184" filterUnits="userSpaceOnUse">
      <feOffset dy="3" input="SourceAlpha"/>
      <feGaussianBlur stdDeviation="8" result="blur"/>
      <feFlood flood-opacity="0.161"/>
      <feComposite operator="in" in2="blur"/>
      <feComposite in="SourceGraphic"/>
    </filter>
    <linearGradient id="linear-gradient" x1="0.5" x2="0.5" y2="1" gradientUnits="objectBoundingBox">
      <stop offset="0" stop-color="#09bc8a"/>
      <stop offset="1" stop-color="#65f4cc"/>
    </linearGradient>
  </defs>
  <g id="Group_214" data-name="Group 214" transform="translate(-612.021 -2408.299)">
    <g transform="matrix(1, 0, 0, 1, 612.02, 2408.3)" filter="url(#Ellipse_21)">
      <circle id="Ellipse_21-2" data-name="Ellipse 21" cx="68" cy="68" r="68" transform="translate(39.98 48.7)" fill="#fff"/>
    </g>
    <g id="Group_151" data-name="Group 151" transform="matrix(0.07, -0.998, 0.998, 0.07, 628, 2628.283)">
      <path id="Path_148" data-name="Path 148" d="M450.228,174.407c-.141,1.413-.424,2.9-.707,4.381a105.69,105.69,0,0,1-11.375,31.3c-9.115,16.6-22.68,30.452-40.485,41.332q-26.389,16.215-55.039,17.24a108.7,108.7,0,0,1-23.6-1.625c-.353-.071-.777-.141-1.131-.212a105.924,105.924,0,0,1-19.995-6.783q-26.177-11.764-44.583-36.669-18.546-25.223-21.973-53.556a103.985,103.985,0,0,1,1.413-34.126,35.7,35.7,0,0,1,.848-3.745,105.28,105.28,0,0,1,10.033-24.587A107.676,107.676,0,0,1,269.708,76.2a14.966,14.966,0,0,1,7.772-3.321,17.329,17.329,0,0,1,1.908-.141,14.955,14.955,0,0,1,12.788,7.136A15.233,15.233,0,0,1,293.094,94a13.458,13.458,0,0,1-3.674,4.8,72.14,72.14,0,0,0-17.381,21.549,74.486,74.486,0,0,0-7.984,24.3,73.817,73.817,0,0,0-1.484,23.669q1.908,19.924,14.767,37.305A74.22,74.22,0,0,0,308.5,230.647a77.326,77.326,0,0,0,19.43,5.37.529.529,0,0,1,.353.071,75.735,75.735,0,0,0,15.544,1.342,74.791,74.791,0,0,0,38.294-11.375q18.335-11.34,27.7-29.039a73.187,73.187,0,0,0,7.419-22.044A73.649,73.649,0,0,0,419,149.113a72.317,72.317,0,0,0-7.984-26.566,13.488,13.488,0,0,1-1.554-5.935,15.047,15.047,0,0,1,6.147-12.647,14.634,14.634,0,0,1,8.761-2.9,15.068,15.068,0,0,1,7.419,1.908,14.646,14.646,0,0,1,6.005,6.076A107.784,107.784,0,0,1,450.228,147.7,105.57,105.57,0,0,1,450.228,174.407Z" transform="translate(-230.554 -72.736)" fill="url(#linear-gradient)"/>
    </g>
    <path id="Path_170" data-name="Path 170" d="M667.551,196.276a13.435,13.435,0,0,1-4.372,9.921,11.852,11.852,0,0,1-2.074,1.569,13.343,13.343,0,0,1-8.8,1.906,12.872,12.872,0,0,1-8.352-4.54,59.649,59.649,0,0,0-33.463-20.515,61.126,61.126,0,0,0-8.52-.392,60.082,60.082,0,0,0-21.86,4.82,12.783,12.783,0,0,1-8.52.5,13.25,13.25,0,0,1-7.9-6.054,12.413,12.413,0,0,1-1.121-2.3,13.193,13.193,0,0,1,4.989-15.583,6.147,6.147,0,0,1,2.018-1.177,84.028,84.028,0,0,1,70.906,3.868,82.84,82.84,0,0,1,23.878,19.338,13.557,13.557,0,0,1,3.2,8.632Z" transform="translate(443.85 3113.421) rotate(-89)" fill="url(#linear-gradient)"/>
    <g id="XMLID_1220_" transform="translate(660.84 2492)">
      <g id="XMLID_339_" transform="translate(30.16 0)">
        <path id="XMLID_349_" d="M87.741,57.748,78.126,41.094a2.567,2.567,0,0,1,1.362-.829,5.13,5.13,0,0,0,3.461-7.187,2.566,2.566,0,0,1,.708-3.1,5.13,5.13,0,0,0,0-7.977,2.566,2.566,0,0,1-.708-3.1,5.13,5.13,0,0,0-3.461-7.187,2.566,2.566,0,0,1-1.983-2.487,5.13,5.13,0,0,0-6.237-4.973A2.567,2.567,0,0,1,68.4,2.873,5.13,5.13,0,0,0,60.626,1.1a2.566,2.566,0,0,1-3.18,0,5.13,5.13,0,0,0-7.777,1.775A2.566,2.566,0,0,1,46.8,4.253a5.13,5.13,0,0,0-6.237,4.973,2.567,2.567,0,0,1-1.983,2.487A5.13,5.13,0,0,0,35.123,18.9a2.566,2.566,0,0,1-.708,3.1,5.13,5.13,0,0,0,0,7.977,2.566,2.566,0,0,1,.708,3.1,5.13,5.13,0,0,0,3.461,7.187,2.566,2.566,0,0,1,1.362.829L30.332,57.748a1.279,1.279,0,0,0,1.442,1.873l6.7-1.817,1.775,6.708a1.279,1.279,0,0,0,2.343.312l8.2-14.21a5.131,5.131,0,0,0,6.653.266,2.566,2.566,0,0,1,3.18,0,5.107,5.107,0,0,0,3.163,1.1,5.149,5.149,0,0,0,3.491-1.364l8.2,14.21a1.279,1.279,0,0,0,2.343-.312L79.6,57.8l6.7,1.817a1.278,1.278,0,0,0,1.442-1.873ZM41.924,60.861l-1.311-4.954A1.279,1.279,0,0,0,39.043,55L34.1,56.342l6.809-11.793a5.131,5.131,0,0,0,5.9,3.177,2.565,2.565,0,0,1,2.33.649ZM64.369,49.356a2.563,2.563,0,0,1-2.163-.486,5.117,5.117,0,0,0-6.341,0,2.573,2.573,0,0,1-3.9-.89,5.117,5.117,0,0,0-5.713-2.751,2.573,2.573,0,0,1-3.128-2.494,5.117,5.117,0,0,0-3.954-4.958,2.573,2.573,0,0,1-1.736-3.6,5.117,5.117,0,0,0-1.411-6.182,2.573,2.573,0,0,1,0-4,5.117,5.117,0,0,0,1.411-6.182,2.573,2.573,0,0,1,1.736-3.6,5.117,5.117,0,0,0,3.954-4.958A2.573,2.573,0,0,1,46.252,6.75,5.118,5.118,0,0,0,51.965,4a2.573,2.573,0,0,1,3.9-.89,5.117,5.117,0,0,0,6.341,0,2.573,2.573,0,0,1,3.9.89A5.117,5.117,0,0,0,71.82,6.75a2.573,2.573,0,0,1,3.128,2.494A5.117,5.117,0,0,0,78.9,14.2a2.573,2.573,0,0,1,1.736,3.6,5.117,5.117,0,0,0,1.411,6.182,2.573,2.573,0,0,1,0,4,5.117,5.117,0,0,0-1.411,6.182,2.573,2.573,0,0,1-1.736,3.6,5.117,5.117,0,0,0-3.954,4.958,2.573,2.573,0,0,1-3.128,2.494,5.117,5.117,0,0,0-5.713,2.751A2.562,2.562,0,0,1,64.369,49.356ZM79.03,55a1.278,1.278,0,0,0-1.571.907l-1.311,4.954L68.939,48.375a2.565,2.565,0,0,1,2.33-.649,5.131,5.131,0,0,0,5.9-3.177l6.809,11.793Z" transform="translate(-30.16 0)" fill="#1e1e1e"/>
        <path id="XMLID_357_" d="M186.231,133.746a1.279,1.279,0,0,0,1.217-1.67l-2.015-6.266,5.315-3.905a1.278,1.278,0,0,0-.757-2.309h-6.577l-2.051-6.249a1.278,1.278,0,0,0-2.43,0l-2.051,6.249h-6.577a1.278,1.278,0,0,0-.757,2.309l5.315,3.905-2.015,6.266a1.279,1.279,0,0,0,1.966,1.428l5.335-3.852,5.335,3.852A1.274,1.274,0,0,0,186.231,133.746Zm-5.335-6.707a1.278,1.278,0,0,0-1.5,0l-2.925,2.112,1.1-3.434a1.279,1.279,0,0,0-.46-1.422l-2.914-2.141h3.6a1.279,1.279,0,0,0,1.215-.88l1.125-3.427,1.125,3.427a1.279,1.279,0,0,0,1.215.88h3.6l-2.914,2.141a1.279,1.279,0,0,0-.46,1.422l1.1,3.434Z" transform="translate(-151.273 -98.087)" fill="#1e1e1e"/>
        <path id="XMLID_358_" d="M151.808,81.172A17.9,17.9,0,1,0,127.8,98a1.279,1.279,0,1,0,.872-2.4,15.343,15.343,0,1,1,10.463,0,1.279,1.279,0,1,0,.872,2.4A17.955,17.955,0,0,0,151.808,81.172Z" transform="translate(-105.032 -55.182)" fill="#1e1e1e"/>
        <path id="XMLID_676_" d="M247.287,323.27a1.279,1.279,0,1,0,.9.375A1.288,1.288,0,0,0,247.287,323.27Z" transform="translate(-218.411 -281.938)" fill="#1e1e1e"/>
      </g>
    </g>
  </g>
</svg>
