<?xml version="1.0" encoding="utf-8"?>
<!-- Generator: Adobe Illustrator 24.3.0, SVG Export Plug-In . SVG Version: 6.00 Build 0)  -->
<svg version="1.1" id="Capa_1" xmlns="http://www.w3.org/2000/svg" xmlns:xlink="http://www.w3.org/1999/xlink" x="0px" y="0px"
	 viewBox="0 0 484 484" style="enable-background:new 0 0 484 484;" xml:space="preserve">
<style type="text/css">
	.st0{fill:#FFFFFF;}
</style>
<g>
	<g>
		<path class="st0" d="M242,0C108.6,0,0,108.6,0,242s108.6,242,242,242s242-108.6,242-242S375.4,0,242,0z M242,433.9
			c-105.8,0-191.9-86.1-191.9-191.9S136.2,50.1,242,50.1S433.9,136.2,433.9,242S347.8,433.9,242,433.9z"/>
	</g>
</g>
<g>
	<g>
		<path class="st0" d="M328.7,324.2h-39.9l-83.2-100.6v100.6h-39.9V159.8h39.9l83.2,100.4V159.8h39.9V324.2z"/>
	</g>
	<rect x="101.6" y="222" class="st0" width="280.9" height="40.5"/>
</g>
</svg>
