<svg xmlns="http://www.w3.org/2000/svg" width="80.048" height="80.049" viewBox="0 0 80.048 80.049"><defs><style>.a{fill:#09bc8a;}</style></defs><g transform="translate(-1127 -5222)"><path class="a" d="M1177.753,5224.011s-24.679,24.052-19.664,34.123,13.744,12.926,19.664,12.6,17.532-1.851,19.955-16.1S1177.753,5224.011,1177.753,5224.011Z"/><g transform="translate(1127 5221.999)"><path d="M17.077,35.668H14.43A4,4,0,0,0,10.673,33H4a4,4,0,0,0-4,4V65.02a4,4,0,0,0,4,4h6.671a3.982,3.982,0,0,0,2.962-1.334H47.1a10.653,10.653,0,0,0,5.549-1.557l25-15.222a4.994,4.994,0,0,0-4.177-9c-27.815,9.274-24.7,8.437-26.723,8.437,1.617-4.485-2.427-9.339-7.481-9.339h-6.98a10.876,10.876,0,0,1-6.772-2.376,13.562,13.562,0,0,0-8.437-2.961Zm-6.4,30.686H4A1.334,1.334,0,0,1,2.668,65.02V37A1.334,1.334,0,0,1,4,35.668h6.671A1.334,1.334,0,0,1,12.008,37V65.02A1.334,1.334,0,0,1,10.673,66.354ZM39.267,43.673c3.54,0,6.612,3.833,4.5,6.671H35.656a13.3,13.3,0,0,0-7.4,2.241l-.978.651a1.334,1.334,0,0,0,1.481,2.22,11.283,11.283,0,0,1,6.9-2.444c12.685,0,12.577.12,13.969-.342l24.7-8.233a2.327,2.327,0,0,1,1.947,4.192L51.259,63.853A8.005,8.005,0,0,1,47.1,65.02H14.676V38.337c3.031,0,5.91-.233,9.172,2.376a13.562,13.562,0,0,0,8.439,2.961Z" transform="translate(0 11.027)"/><path d="M43.347,50.7c11.77,0,21.347-8.923,21.347-19.891C64.693,20.112,45.1,1.172,44.27.372a1.334,1.334,0,0,0-1.846,0C41.59,1.172,22,20.112,22,30.807,22,41.775,31.577,50.7,43.347,50.7Zm0-47.5C49.318,9.123,62.025,23.289,62.025,30.81c0,9.494-8.379,17.22-18.678,17.22S24.668,40.3,24.668,30.807c0-7.521,12.707-21.687,18.678-27.605Z" transform="translate(7.352)"/><path d="M31.668,30.01h5.337v5.337a2.668,2.668,0,0,0,2.668,2.668h2.668a2.668,2.668,0,0,0,2.668-2.668V30.01h5.337a2.668,2.668,0,0,0,2.668-2.668V24.673a2.668,2.668,0,0,0-2.668-2.668H45.01V16.668A2.668,2.668,0,0,0,42.342,14H39.673a2.668,2.668,0,0,0-2.668,2.668v5.337H31.668A2.668,2.668,0,0,0,29,24.673v2.668A2.668,2.668,0,0,0,31.668,30.01Zm0-5.337h5.337a2.668,2.668,0,0,0,2.668-2.668V16.668h2.668v5.337a2.668,2.668,0,0,0,2.668,2.668h5.337v2.668H45.01a2.668,2.668,0,0,0-2.668,2.668v5.337H39.673V30.01a2.668,2.668,0,0,0-2.668-2.668H31.668Z" transform="translate(9.691 4.678)"/></g></g></svg>