<svg xmlns="http://www.w3.org/2000/svg" width="92.453" height="80" viewBox="0 0 92.453 80"><defs><style>.a{fill:#09bc8a;}</style></defs><g transform="translate(-674 -5222.049)"><path class="a" d="M714.03,5251.035h12.546v9.578h10.579v13.715H726.577v10.5H714.03v-10.5H703.78v-13.715H714.03Z"/><g transform="translate(674 5195.865)"><g transform="translate(27.203 52.824)"><path d="M149.612,148.831H141.85v-7.761a2.835,2.835,0,0,0-2.815-2.853h-11.2A2.835,2.835,0,0,0,125,141.05v7.761h-7.742a2.834,2.834,0,0,0-2.853,2.815v11.2a2.835,2.835,0,0,0,2.834,2.834H125v7.742a2.835,2.835,0,0,0,2.815,2.853H139a2.835,2.835,0,0,0,2.834-2.834h0v-7.761h7.761a2.835,2.835,0,0,0,2.853-2.815V151.665A2.834,2.834,0,0,0,149.612,148.831Zm-.97,13.031h-8.694a1.9,1.9,0,0,0-1.9,1.9v8.694H128.8v-8.694a1.9,1.9,0,0,0-1.9-1.9H118.2v-9.226H126.9a1.9,1.9,0,0,0,1.9-1.9v-8.713h9.226v8.694a1.9,1.9,0,0,0,1.9,1.9h8.713Z" transform="translate(-114.4 -138.216)"/></g><g transform="translate(0 26.184)"><g transform="translate(0 0)"><path d="M79.327,38.595H63.652V31.9A5.536,5.536,0,0,0,58.3,26.187q-.234-.007-.467,0H34.622a5.536,5.536,0,0,0-5.817,5.24q-.012.233,0,.467v6.658H13.126C7.077,38.557,0,42,0,51.683V93.058c0,9.683,7.077,13.126,13.126,13.126h66.2c6.049,0,13.126-3.443,13.126-13.126V51.721C92.453,42.038,85.4,38.595,79.327,38.595ZM32.606,31.9a1.784,1.784,0,0,1,2.035-2.035H57.831c2.035,0,2.035,1.465,2.035,2.035v6.658H32.606Zm56.042,61.16c0,8.408-6.506,9.321-9.321,9.321h-66.2c-2.8,0-9.321-.913-9.321-9.321V51.721c0-8.408,6.506-9.321,9.321-9.321h66.2c2.8,0,9.321.913,9.321,9.321V93.058Z" transform="translate(0 -26.184)"/></g></g></g></g></svg>