<svg xmlns="http://www.w3.org/2000/svg" width="70.167" height="79.833" viewBox="0 0 70.167 79.833"><defs><style>.a{fill:#09bc8a;}</style></defs><g transform="translate(-233 -5222.215)"><circle class="a" cx="14" cy="14" r="14" transform="translate(273 5272)"/><g transform="translate(202.005 5222.215)"><path d="M47.361,79.833A16.515,16.515,0,0,0,63.74,63.305a21.134,21.134,0,0,1,8.522-16.919A25.83,25.83,0,0,0,56.726,0H56.7C41.976,0,31,12.68,31,26.888V62.511C31,71.547,37.959,79.833,47.361,79.833ZM35.673,26.888c0-11.8,9.057-22.21,21.023-22.21h.024a21.171,21.171,0,0,1,21.053,21.2A20.9,20.9,0,0,1,69.435,42.66,25.966,25.966,0,0,0,59.062,63.305a11.833,11.833,0,0,1-11.85,11.849c-6.548-.079-11.539-6.048-11.539-12.643V26.888Z"/><path d="M93.334,97.569a2.339,2.339,0,1,0,0,4.678,7.018,7.018,0,0,0,6.2-10.308,32.952,32.952,0,0,1-3.859-15.419,12.014,12.014,0,0,1,.23-2.339h2.109a7.025,7.025,0,0,1,7.017,7.017,2.339,2.339,0,1,0,4.678,0A11.708,11.708,0,0,0,98.012,69.5h-.061a11.636,11.636,0,0,1,9.417-4.834,11.773,11.773,0,0,1,0,23.545,2.339,2.339,0,0,0,0,4.678A16.45,16.45,0,1,0,90.995,76.53,37.633,37.633,0,0,0,95.4,94.135a2.308,2.308,0,0,1,.271,1.1A2.341,2.341,0,0,1,93.334,97.569Z" transform="translate(-50.644 -50.637)"/><path d="M270.995,317.363a16.372,16.372,0,1,0,16.372-16.372A16.47,16.47,0,0,0,270.995,317.363Zm16.372-11.695a11.773,11.773,0,1,1-11.695,11.695A11.708,11.708,0,0,1,287.367,305.669Z" transform="translate(-202.577 -254.058)"/><path d="M331.681,374.341a2.339,2.339,0,0,0,3.308,0l3.024-3.024,3.024,3.024a2.339,2.339,0,1,0,3.308-3.308l-3.024-3.024,3.024-3.024a2.339,2.339,0,1,0-3.308-3.308l-3.024,3.024-3.024-3.024a2.339,2.339,0,0,0-3.308,3.308l3.024,3.024-3.024,3.024A2.339,2.339,0,0,0,331.681,374.341Z" transform="translate(-253.222 -304.704)"/></g></g></svg>